<?xml version="1.0" standalone="no"?><!DOCTYPE svg PUBLIC "-//W3C//DTD SVG 1.1//EN" "http://www.w3.org/Graphics/SVG/1.1/DTD/svg11.dtd"><svg t="1657784543738" class="icon" viewBox="0 0 1024 1024" version="1.1" xmlns="http://www.w3.org/2000/svg" p-id="1330" xmlns:xlink="http://www.w3.org/1999/xlink" width="200" height="200"><defs><style type="text/css"></style></defs><path d="M870.4 1024H0V0h870.4v347.136h-51.2V51.2H51.2v921.6h768v-75.264h51.2V1024z" fill="#333333" p-id="1331"></path><path d="M204.8 256h460.8v51.2H204.8zM204.8 409.6h358.4v51.2H204.8zM204.8 563.2h307.2v51.2H204.8zM204.8 716.8h307.2v51.2H204.8zM843.776 780.1344l39.4752-22.784 140.544 243.456-39.424 22.784z" fill="#333333" p-id="1332"></path><path d="M883.2 757.76l-39.424 22.528L984.576 1024l39.424-23.04-140.8-243.2z" fill="#333333" p-id="1333"></path><path d="M768 819.2a204.8 204.8 0 1 1 204.8-204.8 204.8 204.8 0 0 1-204.8 204.8z m0-358.4a153.6 153.6 0 1 0 153.6 153.6 153.6 153.6 0 0 0-153.6-153.6z" fill="#333333" p-id="1334"></path></svg>