<?xml version="1.0" standalone="no"?><!DOCTYPE svg PUBLIC "-//W3C//DTD SVG 1.1//EN" "http://www.w3.org/Graphics/SVG/1.1/DTD/svg11.dtd"><svg t="1661756160248" class="icon" viewBox="0 0 1024 1024" version="1.1" xmlns="http://www.w3.org/2000/svg" p-id="23357" xmlns:xlink="http://www.w3.org/1999/xlink" width="200" height="200"><path d="M932.2 504.9H569.7V75c0-6-4.9-10.8-10.8-10.8H286.8c-6 0-10.8 4.9-10.8 10.8v271.5H94.8c-6 0-10.8 4.9-10.8 10.8v599c0 5.9 4.9 10.8 10.8 10.8h837.5c6 0 10.8-4.9 10.7-10.7V515.7c0-5.9-4.9-10.8-10.8-10.8z" fill="#83C6EF" p-id="23358"></path><path d="M165.2 793.9h88.1V882h-88.1z" fill="#2D416C" p-id="23359"></path><path d="M381.9 793.9H470V882h-88.1z" fill="#F9AB10" p-id="23360"></path><path d="M932.2 504.9H569.7V75c0-0.2-0.1-0.4-0.1-0.6v892.7h362.7c6 0 10.8-4.9 10.7-10.7V515.7c0-5.9-4.9-10.8-10.8-10.8z" fill="#429BCF" p-id="23361"></path><path d="M603.8 793.9h88.1V882h-88.1z" fill="#2D416C" p-id="23362"></path><path d="M805.5 793.9h88.1V882h-88.1zM165.2 634.4h88.1v88.1h-88.1z" fill="#F9AB10" p-id="23363"></path><path d="M381.9 634.4H470v88.1h-88.1z" fill="#2D416C" p-id="23364"></path><path d="M603.8 634.4h88.1v88.1h-88.1zM805.5 634.4h88.1v88.1h-88.1zM165.2 475h88.1v88.1h-88.1zM381.9 475H470v88.1h-88.1z" fill="#F9AB10" p-id="23365"></path><path d="M381.9 315.5H470v88.1h-88.1z" fill="#2D416C" p-id="23366"></path><path d="M384.6 156.1h88.1v88.1h-88.1z" fill="#F9AB10" p-id="23367"></path><path d="M165.2 475h44v88.1h-44zM165.2 634.4h44v88.1h-44z" fill="#F9C85D" p-id="23368"></path><path d="M165.2 793.9h44V882h-44z" fill="#1A7FC0" p-id="23369"></path><path d="M381.9 793.9h44V882h-44z" fill="#F9C85D" p-id="23370"></path><path d="M381.9 634.4h44v88.1h-44z" fill="#1A7FC0" p-id="23371"></path><path d="M381.9 475h44v88.1h-44zM603.8 634.4h44v88.1h-44zM805.5 634.4h44v88.1h-44zM805.5 793.9h44V882h-44z" fill="#F9C85D" p-id="23372"></path><path d="M603.8 793.9h44V882h-44zM381.9 315.5h44v88.1h-44z" fill="#1A7FC0" p-id="23373"></path><path d="M384.6 156.1h44v88.1h-44z" fill="#F9C85D" p-id="23374"></path></svg>