<?xml version="1.0" standalone="no"?><!DOCTYPE svg PUBLIC "-//W3C//DTD SVG 1.1//EN" "http://www.w3.org/Graphics/SVG/1.1/DTD/svg11.dtd"><svg t="1661756484693" class="icon" viewBox="0 0 1024 1024" version="1.1" xmlns="http://www.w3.org/2000/svg" p-id="35853" xmlns:xlink="http://www.w3.org/1999/xlink" width="200" height="200"><path d="M61.281 512a450.56 450.56 0 1 0 901.12 0 450.56 450.56 0 1 0-901.12 0z" fill="#92CEF8" p-id="35854"></path><path d="M240.803 583.997a346.64 346.64 0 1 0 693.28 0 346.64 346.64 0 1 0-693.28 0z" fill="#62B4F9" p-id="35855"></path><path d="M481.659 486.22a245.248 245.248 0 1 1 0.03 346.773 245.207 245.207 0 0 1-0.03-346.772z" fill="#3599F3" p-id="35856"></path><path d="M512 778.291A266.291 266.291 0 1 1 778.24 512 266.563 266.563 0 0 1 512 778.291z m0-493.015A226.719 226.719 0 1 0 738.683 512 226.95 226.95 0 0 0 512 285.276z m-76.585 352.01a19.784 19.784 0 0 1-19.497-23.127l12.872-75.064-54.518-53.166a19.789 19.789 0 0 1 10.962-33.746l75.351-10.952 33.7-68.3a19.779 19.779 0 0 1 35.476 0l33.7 68.3 75.351 10.952a19.789 19.789 0 0 1 10.967 33.746l-54.528 53.166 12.877 75.064a19.789 19.789 0 0 1-28.703 20.86L512 599.551l-67.4 35.446a19.763 19.763 0 0 1-9.185 2.288zM512 557.44a19.763 19.763 0 0 1 9.216 2.273l41.129 21.622-7.849-45.783a19.814 19.814 0 0 1 5.688-17.516l33.28-32.44-45.977-6.656a19.773 19.773 0 0 1-14.894-10.824L512 426.394l-20.567 41.676a19.789 19.789 0 0 1-14.894 10.824l-45.983 6.656 33.28 32.44a19.799 19.799 0 0 1 5.688 17.516l-7.854 45.803 41.13-21.621a19.763 19.763 0 0 1 9.2-2.248z" fill="#FFFFFF" p-id="35857"></path></svg>