<?xml version="1.0" standalone="no"?><!DOCTYPE svg PUBLIC "-//W3C//DTD SVG 1.1//EN" "http://www.w3.org/Graphics/SVG/1.1/DTD/svg11.dtd"><svg t="1661756017785" class="icon" viewBox="0 0 1024 1024" version="1.1" xmlns="http://www.w3.org/2000/svg" p-id="17441" xmlns:xlink="http://www.w3.org/1999/xlink" width="200" height="200"><path d="M624 136h-64a8 8 0 0 1 0-16h64a8 8 0 0 1 0 16z" fill="#263238" p-id="17442"></path><path d="M592 168a8 8 0 0 1-8-8V96a8 8 0 0 1 16 0v64a8 8 0 0 1-8 8zM736 240h-64a8 8 0 0 1 0-16h64a8 8 0 0 1 0 16z" fill="#263238" p-id="17443"></path><path d="M704 272a8 8 0 0 1-8-8v-64a8 8 0 0 1 16 0v64a8 8 0 0 1-8 8zM264 855.984h-160a8 8 0 0 1 0-16h160a8 8 0 0 1 0 16zM72 855.984h-16a8 8 0 0 1 0-16h16a8 8 0 0 1 0 16zM920 855.984h-160a8 8 0 0 1 0-16h160a8 8 0 0 1 0 16zM968 855.984h-16a8 8 0 0 1 0-16h16a8 8 0 0 1 0 16zM512 536c-74.992 0-136-61.008-136-136s61.008-136 136-136 136 61.008 136 136-61.008 136-136 136z m0-256c-66.176 0-120 53.824-120 120s53.824 120 120 120 120-53.824 120-120-53.824-120-120-120z" fill="#263238" p-id="17444"></path><path d="M600.752 325.984l9.536-7.936A128 128 0 0 0 384 400h12.08c74.784 0 147.2-26.192 204.672-74.016z" fill="#FFD740" p-id="17445"></path><path d="M396.08 408H384a8 8 0 0 1-8-8c0-74.992 61.008-136 136-136a135.728 135.728 0 0 1 104.432 48.928 8 8 0 0 1-1.024 11.28l-9.536 7.936A328.688 328.688 0 0 1 396.08 408z m-3.808-16h3.824c72.752 0 143.616-25.632 199.552-72.16l3.168-2.64A119.68 119.68 0 0 0 512 280c-63.472 0-115.6 49.552-119.728 112z m208.48-66h0.16-0.16zM512.064 623.488a8 8 0 0 1-6.64-3.536l-48.064-71.408a7.968 7.968 0 0 1-1.36-4.464V518.56a8 8 0 0 1 11.024-7.424 119.84 119.84 0 0 0 89.984 0.112 8 8 0 0 1 11.008 7.408l0.016 25.264c0 1.6-0.464 3.136-1.344 4.464l-47.936 71.568a8.128 8.128 0 0 1-6.688 3.536zM472 541.648l40.048 59.504 39.952-59.648v-11.504a135.808 135.808 0 0 1-80-0.08v11.728zM624 936a8 8 0 0 1-8-8V704.08a8 8 0 0 1 16 0V928a8 8 0 0 1-8 8zM400 936a8 8 0 0 1-8-8V704.08a8 8 0 0 1 16 0V928a8 8 0 0 1-8 8z" fill="#263238" p-id="17446"></path><path d="M552 808.08L512.16 848l-40.16-39.92L496 615.488h32z" fill="#40C4FF" p-id="17447"></path><path d="M512.16 856a7.952 7.952 0 0 1-5.648-2.336l-40.16-39.92a8 8 0 0 1-2.304-6.672l24-192.592a8 8 0 0 1 7.936-7.008h32a8 8 0 0 1 7.936 7.008l24 192.592a8 8 0 0 1-2.272 6.64l-39.84 39.92a7.872 7.872 0 0 1-5.648 2.368z m-31.744-50.832l31.712 31.52 31.44-31.504-22.64-181.696h-17.872l-22.64 181.68z" fill="#263238" p-id="17448"></path><path d="M512.064 623.488H456a8.032 8.032 0 0 1-7.968-8.896l8-71.408a8 8 0 0 1 14.592-3.568l41.408 61.52 41.296-61.664a7.984 7.984 0 0 1 14.592 3.552l8 71.552a8 8 0 0 1-7.968 8.896h-55.888v0.016z m14.976-16h32l-4.576-40.944-27.424 40.944z m-62.096 0h32.08l-27.504-40.864-4.576 40.864z" fill="#263238" p-id="17449"></path><path d="M704 936a8 8 0 0 1-8-8V660.016a72.08 72.08 0 0 0-42.704-65.776l-90.384-40.272-44.192 65.968a8 8 0 0 1-13.28 0.016l-44.32-65.84-90.352 40.144a72.064 72.064 0 0 0-42.768 65.792V928a8 8 0 0 1-16 0V660.064a88.08 88.08 0 0 1 52.272-80.416l96.496-42.88a8.016 8.016 0 0 1 9.888 2.848l41.408 61.52 41.312-61.664a8.048 8.048 0 0 1 9.904-2.848l96.544 43.008a88.112 88.112 0 0 1 52.192 80.384V928a8.032 8.032 0 0 1-8.016 8zM1000 736.048a8 8 0 0 1-8-8v-31.28a31.84 31.84 0 0 0-17.696-28.624l-90.016-45.008a8 8 0 0 1 7.152-14.32l90.016 45.008A47.808 47.808 0 0 1 1008 696.784v31.28a8 8 0 0 1-8 7.984zM840 608.064c-57.344 0-104-46.656-104-104s46.656-104 104-104 104 46.656 104 104-46.656 104-104 104z m0-192c-48.528 0-88 39.472-88 88s39.472 88 88 88 88-39.472 88-88-39.472-88-88-88z" fill="#263238" p-id="17450"></path><path d="M906.56 448.544l7.152-5.952A96 96 0 0 0 744 504.048h9.056c56.08 0.016 110.4-19.632 153.504-55.504z" fill="#FFD740" p-id="17451"></path><path d="M753.056 512.048H744a8 8 0 0 1-8-8c0-57.344 46.656-104 104-104 30.912 0 60 13.632 79.856 37.408a8 8 0 0 1-1.024 11.28l-7.152 5.952a248.448 248.448 0 0 1-158.624 57.36z m-0.704-16h0.704c54.112 0 106.8-19.056 148.384-53.664l0.72-0.608a87.776 87.776 0 0 0-62.16-25.744 88.16 88.16 0 0 0-87.648 80.016zM839.92 695.984a8 8 0 0 1-6.656-3.552l-48.064-71.84a7.968 7.968 0 0 1-1.344-4.432l-0.016-29.12c0-2.864 1.536-5.52 4-6.944a8.048 8.048 0 0 1 8.016 0.016 88.832 88.832 0 0 0 87.984 0.176 8.032 8.032 0 0 1 12 6.928l0.016 28.768a7.936 7.936 0 0 1-1.344 4.432l-47.936 72a7.968 7.968 0 0 1-6.656 3.568z m-40.064-82.272l40.048 59.856 39.952-60v-13.504a104.752 104.752 0 0 1-80-0.128v13.776z" fill="#263238" p-id="17452"></path><path d="M734.88 652.608a8 8 0 0 1-3.584-15.152l56.992-28.464a8 8 0 0 1 7.152 14.32l-56.992 28.464a8.16 8.16 0 0 1-3.568 0.832zM289.136 652.592a7.952 7.952 0 0 1-3.568-0.848l-57.2-28.592a8 8 0 0 1 7.152-14.32l57.2 28.592a8 8 0 0 1-3.584 15.168zM184.08 608.064c-57.344 0-104-46.656-104-104s46.656-104 104-104 104 46.656 104 104-46.656 104-104 104z m0-192c-48.528 0-88 39.472-88 88s39.472 88 88 88 88-39.472 88-88-39.472-88-88-88z" fill="#263238" p-id="17453"></path><path d="M250.64 448.544l7.152-5.952a96 96 0 0 0-169.712 61.456h9.056c56.08 0.016 110.4-19.632 153.504-55.504z" fill="#FFD740" p-id="17454"></path><path d="M97.136 512.048h-9.056a8 8 0 0 1-8-8c0-57.344 46.656-104 104-104 30.912 0 60 13.632 79.856 37.408a8 8 0 0 1-1.024 11.28l-7.152 5.952a248.448 248.448 0 0 1-158.624 57.36z m-0.704-16h0.704c54.112 0 106.8-19.056 148.384-53.664l0.72-0.608a87.776 87.776 0 0 0-62.16-25.744 88.16 88.16 0 0 0-87.648 80.016z" fill="#263238" p-id="17455"></path><path d="M184 695.984a8 8 0 0 1-6.656-3.552l-48.048-71.84a7.968 7.968 0 0 1-1.344-4.432l-0.016-29.12a8 8 0 0 1 12.016-6.928 88.832 88.832 0 0 0 87.984 0.176 8.032 8.032 0 0 1 12 6.928l0.016 28.768a8.032 8.032 0 0 1-1.344 4.448l-47.952 72a8.016 8.016 0 0 1-6.656 3.552z m-40.048-82.272l40.032 59.856 39.968-60-0.016-13.504a104.672 104.672 0 0 1-80-0.128l0.016 13.776z" fill="#263238" p-id="17456"></path><path d="M24 736.048a8 8 0 0 1-8-8v-31.264c0-18.304 10.176-34.752 26.544-42.944l89.824-44.864a8 8 0 0 1 7.152 14.32L49.696 668.16A31.84 31.84 0 0 0 32 696.784v31.264a8 8 0 0 1-8 8z" fill="#263238" p-id="17457"></path><path d="M184 736.048a8 8 0 0 1-8-8v-40.064a8 8 0 0 1 16 0v40.064a8 8 0 0 1-8 8z" fill="#263238" p-id="17458"></path><path d="M839.856 736.048a8 8 0 0 1-8-8v-40.064a8 8 0 0 1 16 0v40.064a8 8 0 0 1-8 8z" fill="#263238" p-id="17459"></path></svg>