<?xml version="1.0" standalone="no"?><!DOCTYPE svg PUBLIC "-//W3C//DTD SVG 1.1//EN" "http://www.w3.org/Graphics/SVG/1.1/DTD/svg11.dtd"><svg t="1661756450256" class="icon" viewBox="0 0 1024 1024" version="1.1" xmlns="http://www.w3.org/2000/svg" p-id="34370" xmlns:xlink="http://www.w3.org/1999/xlink" width="200" height="200"><path d="M269.26 495.94a225.36 225.36 0 0 1 35.92-8.15A321 321 0 0 1 355 457.14a296.21 296.21 0 0 1 80.61-26.52C366.35 409.82 315 347 311.44 271.93a123.41 123.41 0 0 0-42.18 224zM726.19 392.73a123.57 123.57 0 0 0-67.07-109.8c-7.83 70.18-57.44 127.92-123.33 147.69a296.21 296.21 0 0 1 80.61 26.52 321.22 321.22 0 0 1 51.21 31.68c3.36 0.58 6.69 1.25 10 2a123.31 123.31 0 0 0 48.58-98.09z" fill="#FFCC66" p-id="34371"></path><path d="M90.54 780.4h61.7c7.13-90.4 40.7-174.33 96.34-239.38a358.77 358.77 0 0 1 37.15-37.54C175.89 530.81 92.84 644.19 90.54 780.4zM688 505.5a359.73 359.73 0 0 1 34.86 35.5c55.65 65.05 89.22 149 96.35 239.38h56.47C873.42 647.31 794.08 536 688 505.5z" fill="#3399CC" p-id="34372"></path><path d="M812.09 574c-33.73-39.43-75.2-66.6-120.43-79.61a135 135 0 0 0-31.6-223.93c0.09-2.31 0.15-4.63 0.15-7C660.21 167.24 581.94 89 485.72 89c-95.09 0-172.64 76.46-174.45 171.12C249 272.09 201.8 327 201.8 392.73a135 135 0 0 0 53.92 107.92c-37.9 14.57-72.61 39.41-101.61 73.3-48.54 56.75-75.27 132.13-75.27 212.28a5.82 5.82 0 0 0 5.82 5.77h66.81c-0.44 8.22-0.68 16.49-0.68 24.8a5.82 5.82 0 0 0 5.82 5.82h658.22a5.82 5.82 0 0 0 5.82-5.82c0-8.31-0.25-16.57-0.68-24.8h61.58a5.82 5.82 0 0 0 5.82-5.82c0-80.1-26.73-155.48-75.28-212.18zM809 811H162.47c2.66-206.23 146.64-373 323.25-373S806.31 604.77 809 811zM322.87 263.46c0-89.79 73.05-162.85 162.85-162.85s162.85 73.05 162.85 162.85-73.05 162.85-162.85 162.85-162.85-73.06-162.85-162.85z m344.74 225.36a321.22 321.22 0 0 0-51.21-31.68 296.21 296.21 0 0 0-80.61-26.52c65.89-19.77 115.5-77.51 123.33-147.69a123.36 123.36 0 0 1 18.5 207.87c-3.32-0.73-6.62-1.4-10.01-1.98zM311.44 271.93C315 347 366.35 409.82 435.65 430.62A296.21 296.21 0 0 0 355 457.14a321 321 0 0 0-49.86 30.65 225.36 225.36 0 0 0-35.92 8.15 123.41 123.41 0 0 1 42.18-224z m-25.71 231.56A358.77 358.77 0 0 0 248.58 541c-55.65 65.05-89.22 149-96.34 239.38h-61.7c2.3-136.19 85.35-249.57 195.19-276.89zM722.86 541A359.73 359.73 0 0 0 688 505.5C794.08 536 873.42 647.31 875.67 780.4h-56.46c-7.13-90.4-40.7-174.32-96.35-239.4z" fill="" p-id="34373"></path><path d="M485.72 438c-176.61 0-320.59 166.77-323.25 373H809c-2.69-206.23-146.67-373-323.28-373z" fill="#3399CC" p-id="34374"></path><path d="M485.72 426.31c89.79 0 162.85-73.05 162.85-162.85s-73.05-162.85-162.85-162.85-162.85 73.06-162.85 162.85 73.06 162.85 162.85 162.85z m79.49-104.93c-17 26.77-46.5 42.74-78.79 42.74s-61.75-16-78.79-42.75a11.65 11.65 0 1 1 19.65-12.51c12.75 20 34.86 32 59.15 32s46.39-11.95 59.14-32a11.65 11.65 0 0 1 19.65 12.51z" fill="#FFCC66" p-id="34375"></path><path d="M561.64 305.3a11.65 11.65 0 0 0-16.08 3.57c-12.75 20-34.86 32-59.14 32s-46.4-12-59.15-32a11.65 11.65 0 1 0-19.65 12.51c17 26.77 46.5 42.75 78.79 42.75s61.74-16 78.79-42.74a11.65 11.65 0 0 0-3.56-16.09z" fill="#3399CC" p-id="34376"></path></svg>