<?xml version="1.0" standalone="no"?><!DOCTYPE svg PUBLIC "-//W3C//DTD SVG 1.1//EN" "http://www.w3.org/Graphics/SVG/1.1/DTD/svg11.dtd"><svg t="1661756375867" class="icon" viewBox="0 0 1024 1024" version="1.1" xmlns="http://www.w3.org/2000/svg" p-id="31422" xmlns:xlink="http://www.w3.org/1999/xlink" width="200" height="200"><path d="M0.399922 521.398164C0.399922 156.46944 138.073033 0.199961 503.001757 0.199961s521.198203 156.269479 521.198204 521.198203-137.673111 502.601836-502.601836 502.601836S0.399922 886.326889 0.399922 521.398164z" fill="#DD0B0D" p-id="31423"></path><path d="M725.358328 626.27768c7.498535 6.898653 11.297793 16.396798 11.297794 28.494435 0 9.098223-2.599492 16.99668-7.698497 23.695372-1.999609 2.399531-7.498535 7.698496-16.396797 15.596954-4.499121 3.799258-7.498535 7.498535-9.498145 11.097832-2.599492 4.499121-3.799258 9.298184-3.799258 14.79711v4.699082h-16.196836v-4.699082c0-6.698692 1.199766-12.59754 3.599297-17.596563 2.799453-6.098809 9.498145-13.797305 20.495996-23.495411 3.199375-3.199375 5.698887-5.698887 6.898653-7.298575 3.999219-5.099004 6.098809-10.297989 6.098809-15.996875 0-8.098418-2.399531-14.397188-6.898653-18.796329-4.699082-4.899043-11.297793-7.098614-19.796133-7.098614-10.098028 0-17.596563 3.199375-22.495607 9.898067-4.499121 5.698887-6.698692 13.397383-6.698691 23.29545h-15.996876c0-14.197227 3.799258-25.495021 11.897676-33.993361 8.098418-8.898262 19.396212-13.397383 33.993361-13.397383 12.897481 0.09998 23.29545 3.499317 31.193907 10.797891z m-25.39504 115.977348c2.19957 2.19957 3.399336 5.099004 3.399336 8.49834 0 3.599297-1.199766 6.498731-3.599297 8.698302-2.399531 2.19957-5.298965 3.399336-8.698301 3.399336-3.399336 0-6.29877-1.199766-8.698301-3.399336-2.399531-2.399531-3.399336-5.298965-3.399336-8.698302 0-3.399336 0.999805-6.29877 3.399336-8.49834 2.399531-2.399531 5.298965-3.399336 8.698301-3.399336 3.499317 0 6.498731 0.999805 8.898262 3.399336z" fill="#FFFFFF" p-id="31424"></path><path d="M494.803359 467.60867c76.785003 0 139.172818-62.387815 139.172818-139.172818s-62.387815-139.172818-139.172818-139.172817c-76.785003 0-139.172818 62.387815-139.172818 139.172817s62.387815 139.172818 139.172818 139.172818z m0-228.355399c49.190393 0 89.182582 39.992189 89.182581 89.182581s-39.992189 89.182582-89.182581 89.182582-89.182582-39.992189-89.182582-89.182582 39.992189-89.182582 89.182582-89.182581zM593.784027 552.29213c3.699277-13.297403-3.999219-27.094708-17.296622-30.793985-27.59461-7.698496-56.388987-11.597735-85.783246-11.597735-79.184534 0-153.669986 28.294474-209.759031 79.584456-27.49463 25.195079-49.190393 54.489358-64.287444 87.282953-15.796915 34.093341-23.795352 70.286272-23.795352 107.678969 0 13.797305 11.197813 24.995118 24.995118 24.995118s24.995118-11.197813 24.995118-24.995118C242.752587 660.670963 353.930873 559.890646 490.604179 559.890646c24.895138 0 49.190393 3.299356 72.385862 9.798087 13.297403 3.699277 27.094708-4.099199 30.793986-17.396603zM690.565124 558.5909c-69.686389 0-126.375317 56.688928-126.375317 126.375318S620.878735 811.341535 690.565124 811.341535s126.375317-56.688928 126.375317-126.375317-56.688928-126.375317-126.375317-126.375318z m0 232.75454c-58.688537 0-106.379223-47.690685-106.379223-106.379222S631.876587 578.586995 690.565124 578.586995s106.379223 47.690685 106.379223 106.379223-47.690685 106.379223-106.379223 106.379222z" fill="#FFFFFF" p-id="31425"></path></svg>