<?xml version="1.0" standalone="no"?><!DOCTYPE svg PUBLIC "-//W3C//DTD SVG 1.1//EN" "http://www.w3.org/Graphics/SVG/1.1/DTD/svg11.dtd"><svg t="1661756613096" class="icon" viewBox="0 0 1024 1024" version="1.1" xmlns="http://www.w3.org/2000/svg" p-id="41235" xmlns:xlink="http://www.w3.org/1999/xlink" width="200" height="200"><path d="M805.205333 214.698667v627.712c0 28.672-29.354667 48.128-55.978666 36.522666l-203.776-88.746666c-21.162667-9.216-45.397333-9.216-66.901334 0l-203.776 88.405333c-26.282667 11.605333-55.978667-7.850667-55.978666-36.522667V214.698667c0-40.277333 32.768-73.045333 73.045333-73.045334h440.32c40.277333 0 73.045333 32.426667 73.045333 73.045334z" fill="#06CC76" opacity=".6" p-id="41236"></path><path d="M527.701333 314.026667l30.037334 92.842666H655.36c16.042667 0 22.869333 20.48 9.898667 30.037334l-78.848 57.344 30.037333 92.842666c5.12 15.36-12.629333 27.989333-25.6 18.773334L512 548.522667l-78.848 57.344c-12.970667 9.557333-30.72-3.413333-25.6-18.773334l30.037333-92.842666-78.848-57.344c-12.970667-9.557333-6.485333-30.037333 9.898667-30.037334h97.621333l30.037334-92.842666c4.778667-15.36 26.624-15.36 31.402666 0z" fill="#FFFFFF" p-id="41237"></path></svg>